{
  "source": "C:\\Users\\Peter\\Desktop\\stuff\\MIUN\\quantitative_research\\video_compression\\videos\\BVI-HD\\BVI-HD_CDVL_videos\\ORIG\\BridgeRiver_1920x1080_30fps.mp4",
  "output": "C:\\Users\\Peter\\Desktop\\stuff\\MIUN\\quantitative_research\\video_compression\\compressed_videos\\BVI-HD\\h264\\8\\BridgeRiver_1920x1080_30fps_h264.mp4",
  "codec": "h264",
  "ok": "Input #0, mov,mp4,m4a,3gp,3g2,mj2, from 'C:\\Users\\Peter\\Desktop\\stuff\\MIUN\\quantitative_research\\video_compression\\videos\\BVI-HD\\BVI-HD_CDVL_videos\\ORIG\\BridgeRiver_1920x1080_30fps.mp4':\n  Metadata:\n    major_brand     : isom\n    minor_version   : 512\n    compatible_brands: isomiso2avc1mp41\n    encoder         : Lavf54.28.101\n  Duration: 00:00:05.00, start: 0.000000, bitrate: 274913 kb/s\n  Stream #0:0[0x1](und): Video: h264 (High 4:4:4 Predictive) (avc1 / 0x31637661), yuv420p(progressive), 1920x1080, 274910 kb/s, 30 fps, 30 tbr, 30 tbn (default)\n    Metadata:\n      handler_name    : VideoHandler\n      vendor_id       : [0][0][0][0]\n[out#0/mp4 @ 000001f4dfe59a40] Codec AVOption b:a (set bitrate (in bits/s)) has not been used for any stream. The most likely reason is either wrong type (e.g. a video option with no video streams) or that it is a private option of some decoder which was not actually used for any stream.\nStream mapping:\n  Stream #0:0 -> #0:0 (h264 (native) -> h264 (libx264))\nPress [q] to stop, [?] for help\n[libx264 @ 000001f4e0bb75c0] using cpu capabilities: MMX2 SSE2Fast SSSE3 SSE4.2 AVX FMA3 BMI2 AVX2\n[libx264 @ 000001f4e0bb75c0] profile High, level 5.0, 4:2:0, 8-bit\n[libx264 @ 000001f4e0bb75c0] 264 - core 165 r3222 b35605a - H.264/MPEG-4 AVC codec - Copyleft 2003-2025 - http://www.videolan.org/x264.html - options: cabac=1 ref=5 deblock=1:0:0 analyse=0x3:0x113 me=hex subme=8 psy=1 psy_rd=1.00:0.00 mixed_ref=1 me_range=16 chroma_me=1 trellis=2 8x8dct=1 cqm=0 deadzone=21,11 fast_pskip=1 chroma_qp_offset=-2 threads=18 lookahead_threads=3 sliced_threads=0 nr=0 decimate=1 interlaced=0 bluray_compat=0 constrained_intra=0 bframes=3 b_pyramid=2 b_adapt=1 b_bias=0 direct=3 weightb=1 open_gop=0 weightp=2 keyint=250 keyint_min=25 scenecut=40 intra_refresh=0 rc_lookahead=50 rc=cbr mbtree=1 bitrate=8000 ratetol=1.0 qcomp=0.60 qpmin=0 qpmax=69 qpstep=4 vbv_maxrate=8000 vbv_bufsize=8000 nal_hrd=none filler=0 ip_ratio=1.40 aq=1:1.00\nOutput #0, mp4, to 'C:\\Users\\Peter\\Desktop\\stuff\\MIUN\\quantitative_research\\video_compression\\compressed_videos\\BVI-HD\\h264\\8\\BridgeRiver_1920x1080_30fps_h264.mp4':\n  Metadata:\n    major_brand     : isom\n    minor_version   : 512\n    compatible_brands: isomiso2avc1mp41\n    encoder         : Lavf62.3.100\n  Stream #0:0(und): Video: h264 (avc1 / 0x31637661), yuv420p(tv, progressive), 1920x1080, q=2-31, 8000 kb/s, 30 fps, 15360 tbn (default)\n    Metadata:\n      encoder         : Lavc62.11.100 libx264\n      handler_name    : VideoHandler\n      vendor_id       : [0][0][0][0]\n    Side data:\n      cpb: bitrate max/min/avg: 8000000/0/8000000 buffer size: 8000000 vbv_delay: N/A\nframe=    0 fps=0.0 q=0.0 size=       0KiB time=N/A bitrate=N/A speed=N/A elapsed=0:00:00.50    \nframe=    0 fps=0.0 q=0.0 size=       0KiB time=N/A bitrate=N/A speed=N/A elapsed=0:00:01.06    \nframe=    0 fps=0.0 q=0.0 size=       0KiB time=N/A bitrate=N/A speed=N/A elapsed=0:00:01.60    \nframe=    1 fps=0.5 q=36.0 size=       0KiB time=-00:00:00.03 bitrate=N/A speed=N/A elapsed=0:00:02.16    \nframe=    9 fps=3.3 q=35.0 size=     256KiB time=00:00:00.23 bitrate=8989.5kbits/s speed=0.0845x elapsed=0:00:02.76    \nframe=   26 fps=7.9 q=34.0 size=     768KiB time=00:00:00.76 bitrate=8206.7kbits/s speed=0.232x elapsed=0:00:03.31    \nframe=   43 fps= 11 q=34.0 size=    1280KiB time=00:00:01.30 bitrate=8066.3kbits/s speed=0.334x elapsed=0:00:03.89    \nframe=   61 fps= 14 q=34.0 size=    1792KiB time=00:00:01.96 bitrate=7464.6kbits/s speed=0.439x elapsed=0:00:04.48    \nframe=   81 fps= 16 q=34.0 size=    2304KiB time=00:00:02.53 bitrate=7450.6kbits/s speed=0.502x elapsed=0:00:05.05    \nframe=   95 fps= 17 q=34.0 size=    2816KiB time=00:00:03.03 bitrate=7605.2kbits/s speed=0.535x elapsed=0:00:05.67    \nframe=  113 fps= 18 q=33.0 size=    3328KiB time=00:00:03.70 bitrate=7368.5kbits/s speed=0.589x elapsed=0:00:06.28    \nframe=  133 fps= 20 q=31.0 size=    4096KiB time=00:00:04.36 bitrate=7684.3kbits/s speed=0.64x elapsed=0:00:06.81    \n[mp4 @ 000001f4dfe614c0] Starting second pass: moving the moov atom to the beginning of the file\n[out#0/mp4 @ 000001f4dfe59a40] video:4781KiB audio:0KiB subtitle:0KiB other streams:0KiB global headers:0KiB muxing overhead: 0.055377%\nframe=  150 fps= 21 q=-1.0 Lsize=    4783KiB time=00:00:04.93 bitrate=7943.1kbits/s speed=0.677x elapsed=0:00:07.28    \n[libx264 @ 000001f4e0bb75c0] frame I:1     Avg QP:30.38  size:131168\n[libx264 @ 000001f4e0bb75c0] frame P:38    Avg QP:32.45  size: 47417\n[libx264 @ 000001f4e0bb75c0] frame B:111   Avg QP:36.45  size: 26683\n[libx264 @ 000001f4e0bb75c0] consecutive B-frames:  1.3%  0.0%  0.0% 98.7%\n[libx264 @ 000001f4e0bb75c0] mb I  I16..4: 16.9% 74.9%  8.2%\n[libx264 @ 000001f4e0bb75c0] mb P  I16..4:  0.3% 13.2%  0.9%  P16..4: 20.8% 10.1%  4.7%  0.0%  0.0%    skip:50.0%\n[libx264 @ 000001f4e0bb75c0] mb B  I16..4:  0.0%  2.5%  0.1%  B16..8: 18.5%  7.4%  2.5%  direct: 5.4%  skip:63.5%  L0:37.3% L1:43.6% BI:19.1%\n[libx264 @ 000001f4e0bb75c0] 8x8 transform intra:90.4% inter:72.8%\n[libx264 @ 000001f4e0bb75c0] direct mvs  spatial:91.0% temporal:9.0%\n[libx264 @ 000001f4e0bb75c0] coded y,uvDC,uvAC intra: 80.6% 17.2% 2.6% inter: 18.9% 1.6% 0.0%\n[libx264 @ 000001f4e0bb75c0] i16 v,h,dc,p: 16% 37% 10% 37%\n[libx264 @ 000001f4e0bb75c0] i8 v,h,dc,ddl,ddr,vr,hd,vl,hu:  6% 10%  7%  7% 17%  9% 24%  6% 15%\n[libx264 @ 000001f4e0bb75c0] i4 v,h,dc,ddl,ddr,vr,hd,vl,hu:  4%  9%  7%  7% 18%  9% 22%  7% 18%\n[libx264 @ 000001f4e0bb75c0] i8c dc,h,v,p: 84% 14%  2%  0%\n[libx264 @ 000001f4e0bb75c0] Weighted P-Frames: Y:0.0% UV:0.0%\n[libx264 @ 000001f4e0bb75c0] ref P L0: 49.4%  9.9% 21.4%  8.9% 10.4%\n[libx264 @ 000001f4e0bb75c0] ref B L0: 82.0% 10.5%  5.0%  2.4%\n[libx264 @ 000001f4e0bb75c0] ref B L1: 96.3%  3.7%\n[libx264 @ 000001f4e0bb75c0] kb/s:7831.65\n",
  "seconds": 7.592483282089233,
  "probe_out": {}
}